
<svg version="1.0" xmlns="http://www.w3.org/2000/svg"
 width="32.000000pt" height="32.000000pt" viewBox="0 0 32.000000 32.000000"
 preserveAspectRatio="xMidYMid meet">
<g transform="translate(0.000000,32.000000) scale(0.100000,-0.100000)"
fill="#000000" stroke="none">
<path d="M30 263 c-24 -10 -30 -25 -30 -85 l0 -58 65 0 c63 0 65 1 53 20 -15
24 -1 53 28 58 18 3 18 2 2 -11 -27 -22 -21 -43 15 -57 88 -33 86 -35 -41 -38
-118 -3 -143 -10 -103 -32 28 -15 274 -13 289 2 16 16 16 180 0 196 -12 12
-247 16 -278 5z m170 -103 c0 -5 -4 -10 -10 -10 -5 0 -10 5 -10 10 0 6 5 10
10 10 6 0 10 -4 10 -10z"/>
</g>
</svg>
