<svg width="96" height="30" viewBox="0 0 96 30" fill="none" xmlns="http://www.w3.org/2000/svg">
<path d="M2 13C0.895431 13 9.65645e-08 13.8954 0 15C-9.65645e-08 16.1046 0.89543 17 2 17L2 13ZM95.4142 16.4142C96.1953 15.6332 96.1953 14.3668 95.4142 13.5858L82.6863 0.857871C81.9052 0.0768226 80.6389 0.0768225 79.8579 0.857871C79.0768 1.63892 79.0768 2.90525 79.8579 3.6863L91.1716 15L79.8579 26.3137C79.0768 27.0948 79.0768 28.3611 79.8579 29.1421C80.6389 29.9232 81.9052 29.9232 82.6863 29.1421L95.4142 16.4142ZM2 17L94 17L94 13L2 13L2 17Z" fill="white"/>
</svg>
