<svg width="95" height="30" viewBox="0 0 95 30" fill="none" xmlns="http://www.w3.org/2000/svg">
<path id="Arrow 3" d="M93 17C94.1046 17 95 16.1046 95 15C95 13.8954 94.1046 13 93 13V17ZM0.585785 13.5858C-0.195259 14.3668 -0.195259 15.6332 0.585785 16.4142L13.3137 29.1421C14.0948 29.9232 15.3611 29.9232 16.1421 29.1421C16.9232 28.3611 16.9232 27.0948 16.1421 26.3137L4.82843 15L16.1421 3.68629C16.9232 2.90524 16.9232 1.63891 16.1421 0.857864C15.3611 0.0768156 14.0948 0.0768156 13.3137 0.857864L0.585785 13.5858ZM93 13L2 13V17L93 17V13Z" fill="white"/>
</svg>
