<svg width="33" height="24" viewBox="0 0 33 24" fill="none" xmlns="http://www.w3.org/2000/svg">
<rect width="33" height="24" fill="#BEBEBE"/>
<g id="Home">
<rect width="1440" height="6349" transform="translate(-647 -4998)" fill="white"/>
<g id="Frame 496">
<rect x="-611" y="-784" width="1368" height="931" rx="10" fill="#0047FF"/>
<g id="Frame 494">
<g id="Frame 591">
<g id="Frame 589">
<g id="Frame 413">
<path d="M-557 -17H63V31C63 36.5229 58.5228 41 53 41H-547C-552.523 41 -557 36.5228 -557 31V-17Z" fill="white"/>
<g id="Frame 590">
<path id="Arrow 1" d="M1.5 10.5C0.671573 10.5 0 11.1716 0 12C0 12.8284 0.671573 13.5 1.5 13.5V10.5ZM32.5607 13.0607C33.1464 12.4749 33.1464 11.5251 32.5607 10.9393L23.0147 1.3934C22.4289 0.807611 21.4792 0.807611 20.8934 1.3934C20.3076 1.97919 20.3076 2.92893 20.8934 3.51472L29.3787 12L20.8934 20.4853C20.3076 21.0711 20.3076 22.0208 20.8934 22.6066C21.4792 23.1924 22.4289 23.1924 23.0147 22.6066L32.5607 13.0607ZM1.5 13.5H31.5V10.5H1.5V13.5Z" fill="black"/>
</g>
</g>
</g>
</g>
</g>
</g>
</g>
</svg>
