<svg width="672" height="600" viewBox="0 0 672 600" fill="none" xmlns="http://www.w3.org/2000/svg">
<g clip-path="url(#clip0_54_271)">
<rect width="672" height="600" rx="10" fill="white"/>
<g filter="url(#filter0_f_54_271)">
<path fill-rule="evenodd" clip-rule="evenodd" d="M22.9595 -127.795C80.3895 -141.163 130.457 -90.4025 183.937 -65.5173C253.522 -33.1377 366.745 -35.7692 382.512 39.5129C398.91 117.808 275.03 154.835 245.667 229.223C219.542 295.409 287.307 401.093 225.775 436.585C161.34 473.75 97.278 359.204 22.9595 357.68C-48.4819 356.215 -108.712 457.697 -173.917 428.388C-235.306 400.794 -218.033 306.059 -236.313 241.137C-253.654 179.551 -310.817 113.499 -278.043 58.5893C-243.677 1.01016 -148.495 33.864 -91.5571 -1.39284C-42.0441 -32.0518 -33.7256 -114.601 22.9595 -127.795Z" fill="#AD00FF"/>
</g>
<g filter="url(#filter1_f_54_271)">
<path fill-rule="evenodd" clip-rule="evenodd" d="M672.289 110.27C731.257 96.5068 782.666 148.77 837.578 174.392C909.027 207.731 1025.28 205.022 1041.47 282.533C1058.31 363.148 931.111 401.271 900.962 477.862C874.136 546.008 943.717 654.823 880.537 691.365C814.376 729.631 748.598 611.692 672.289 610.123C598.934 608.615 537.09 713.103 470.139 682.925C407.106 654.514 424.841 556.973 406.071 490.129C388.266 426.719 329.572 358.711 363.223 302.175C398.511 242.89 496.241 276.717 554.705 240.416C605.544 208.849 614.085 123.855 672.289 110.27Z" fill="#AD00FF"/>
</g>
<g filter="url(#filter2_f_54_271)">
<path fill-rule="evenodd" clip-rule="evenodd" d="M362.761 -127.639C421.043 -143.511 468.744 -75.653 513.198 -34.7132C552.779 1.73909 585.007 43.7317 603.674 94.2298C623.012 146.546 630.366 201.608 620.87 256.576C610.12 318.805 605.701 404.149 546.412 425.697C482.669 448.863 430.483 346.874 362.761 350.38C287.831 354.26 226.167 488.641 164.772 445.457C103.871 402.619 190.083 303.347 189.948 228.826C189.872 186.607 149.547 147.597 164.164 107.996C178.705 68.5989 234.915 65.8014 261.969 33.7021C303.853 -15.9937 300.093 -110.573 362.761 -127.639Z" fill="white"/>
</g>
<g filter="url(#filter3_f_54_271)">
<path fill-rule="evenodd" clip-rule="evenodd" d="M-23.6593 348.344C14.944 338.516 52.5928 306.733 89.7131 321.186C126.753 335.608 123.645 392.794 154.586 417.746C206.255 459.411 317.184 445.031 325.022 510.942C332.399 572.964 232.202 588.27 178.699 620.496C146.264 640.033 110.714 646.952 75.6183 661.167C36.2726 677.103 3.06857 713.157 -39.1505 708.731C-84.5393 703.974 -121.642 671.374 -152.01 637.307C-185.258 600.009 -219.963 557.167 -218.786 507.215C-217.614 457.497 -184.542 412.59 -145.976 381.19C-112.417 353.866 -65.5971 359.021 -23.6593 348.344Z" fill="#00F0FF"/>
</g>
<g filter="url(#filter4_f_54_271)">
<path fill-rule="evenodd" clip-rule="evenodd" d="M699.721 77.7069C744.658 72.3359 800.227 41.2116 832.097 73.344C865.51 107.032 822.001 166.075 833.118 212.202C842.752 252.172 891.79 276.588 890.99 317.694C890.119 362.519 868.15 411.718 828.82 433.239C789.985 454.489 739.988 440.749 699.721 422.354C668.291 407.996 661.897 366.327 634.963 344.68C610.283 324.846 572.314 327.79 551.921 303.57C525.678 272.403 499.965 233.096 507.256 193.009C514.695 152.111 552.841 123.822 588.5 102.46C621.899 82.4511 661.063 82.3276 699.721 77.7069Z" fill="#00F0FF"/>
</g>
<g filter="url(#filter5_f_54_271)">
<path fill-rule="evenodd" clip-rule="evenodd" d="M245.5 326.976C289.018 334.183 340.499 310.234 374.05 338.838C407.532 367.383 389.837 422.557 405.714 463.565C423.108 508.493 485.482 542.792 470.775 588.667C456.085 634.487 387.736 630.072 345.134 652.528C310.749 670.651 283.898 701.324 245.5 707.408C202.622 714.201 152.068 717.34 119.909 688.212C88.0399 659.346 91.2893 609.1 89.5616 566.165C88.2339 533.171 112.144 504.985 111.207 471.977C109.425 409.16 39.0127 336.565 81.7381 290.433C120.672 248.394 188.936 317.61 245.5 326.976Z" fill="#0047FF"/>
</g>
</g>
<defs>
<filter id="filter0_f_54_271" x="-588" y="-430" width="1272" height="1174" filterUnits="userSpaceOnUse" color-interpolation-filters="sRGB">
<feFlood flood-opacity="0" result="BackgroundImageFix"/>
<feBlend mode="normal" in="SourceGraphic" in2="BackgroundImageFix" result="shape"/>
<feGaussianBlur stdDeviation="150" result="effect1_foregroundBlur_54_271"/>
</filter>
<filter id="filter1_f_54_271" x="53" y="-192" width="1290" height="1191" filterUnits="userSpaceOnUse" color-interpolation-filters="sRGB">
<feFlood flood-opacity="0" result="BackgroundImageFix"/>
<feBlend mode="normal" in="SourceGraphic" in2="BackgroundImageFix" result="shape"/>
<feGaussianBlur stdDeviation="150" result="effect1_foregroundBlur_54_271"/>
</filter>
<filter id="filter2_f_54_271" x="-157" y="-430" width="1082" height="1184" filterUnits="userSpaceOnUse" color-interpolation-filters="sRGB">
<feFlood flood-opacity="0" result="BackgroundImageFix"/>
<feBlend mode="normal" in="SourceGraphic" in2="BackgroundImageFix" result="shape"/>
<feGaussianBlur stdDeviation="150" result="effect1_foregroundBlur_54_271"/>
</filter>
<filter id="filter3_f_54_271" x="-518.815" y="17.478" width="1144.22" height="991.627" filterUnits="userSpaceOnUse" color-interpolation-filters="sRGB">
<feFlood flood-opacity="0" result="BackgroundImageFix"/>
<feBlend mode="normal" in="SourceGraphic" in2="BackgroundImageFix" result="shape"/>
<feGaussianBlur stdDeviation="150" result="effect1_foregroundBlur_54_271"/>
</filter>
<filter id="filter4_f_54_271" x="206" y="-241" width="985" height="985" filterUnits="userSpaceOnUse" color-interpolation-filters="sRGB">
<feFlood flood-opacity="0" result="BackgroundImageFix"/>
<feBlend mode="normal" in="SourceGraphic" in2="BackgroundImageFix" result="shape"/>
<feGaussianBlur stdDeviation="150" result="effect1_foregroundBlur_54_271"/>
</filter>
<filter id="filter5_f_54_271" x="-232" y="-23" width="1005" height="1035" filterUnits="userSpaceOnUse" color-interpolation-filters="sRGB">
<feFlood flood-opacity="0" result="BackgroundImageFix"/>
<feBlend mode="normal" in="SourceGraphic" in2="BackgroundImageFix" result="shape"/>
<feGaussianBlur stdDeviation="150" result="effect1_foregroundBlur_54_271"/>
</filter>
<clipPath id="clip0_54_271">
<rect width="672" height="600" rx="10" fill="white"/>
</clipPath>
</defs>
</svg>
