<svg width="1368" height="966" viewBox="0 0 1368 966" fill="none" xmlns="http://www.w3.org/2000/svg">
<g filter="url(#filter0_f_1_709)">
<path fill-rule="evenodd" clip-rule="evenodd" d="M-256.216 -513.079C-128.03 -542.915 -16.2778 -429.617 103.09 -374.073C258.406 -301.801 511.121 -307.674 546.314 -139.643C582.915 35.1146 306.413 117.76 240.873 283.796C182.56 431.523 333.815 667.414 196.474 746.631C52.6529 829.586 -90.3348 573.915 -256.216 570.513C-415.675 567.243 -550.11 793.755 -695.649 728.336C-832.67 666.745 -794.117 455.295 -834.919 310.388C-873.625 172.927 -1001.21 25.4969 -928.061 -97.0638C-851.354 -225.582 -638.907 -152.251 -511.82 -230.946C-401.305 -299.377 -382.738 -483.629 -256.216 -513.079Z" fill="#AD00FF"/>
</g>
<g filter="url(#filter1_f_1_709)">
<path fill-rule="evenodd" clip-rule="evenodd" d="M1193.85 18.2917C1325.47 -12.4459 1440.21 104.273 1562.78 161.495C1722.25 235.95 1981.74 229.899 2017.87 403.004C2055.45 583.039 1771.55 668.18 1704.25 839.23C1644.38 991.418 1799.68 1234.43 1658.66 1316.04C1510.99 1401.5 1364.17 1138.11 1193.85 1134.61C1030.12 1131.24 892.082 1364.59 742.644 1297.19C601.953 1233.74 641.538 1015.91 599.643 866.624C559.901 725.013 428.895 573.131 504.006 446.869C582.768 314.47 800.905 390.015 931.397 308.944C1044.87 238.446 1063.94 48.6307 1193.85 18.2917Z" fill="#AD00FF"/>
</g>
<g filter="url(#filter2_f_1_709)">
<path fill-rule="evenodd" clip-rule="evenodd" d="M576.513 -723.731C706.599 -759.156 813.069 -607.696 912.291 -516.317C1000.64 -434.955 1072.57 -341.226 1114.24 -228.513C1157.4 -111.743 1173.81 11.1573 1152.62 133.847C1128.62 272.744 1118.76 463.234 986.425 511.329C844.149 563.036 727.67 335.395 576.513 343.221C409.267 351.88 271.631 651.822 134.596 555.434C-1.33794 459.82 191.09 238.242 190.79 71.9096C190.62 -22.3242 100.613 -109.396 133.238 -197.787C165.695 -285.722 291.157 -291.966 351.541 -363.613C445.029 -474.535 436.637 -685.639 576.513 -723.731Z" fill="white"/>
</g>
<g filter="url(#filter3_f_1_709)">
<path fill-rule="evenodd" clip-rule="evenodd" d="M-360.124 549.858C-273.938 527.916 -189.884 456.958 -107.01 489.226C-24.3148 521.424 -31.2552 649.096 37.8245 704.803C153.178 797.825 400.837 765.72 418.338 912.871C434.806 1051.34 211.109 1085.51 91.6592 1157.46C19.2448 1201.08 -60.1247 1216.53 -138.478 1248.26C-226.32 1283.84 -300.451 1364.33 -394.709 1354.45C-496.043 1343.83 -578.879 1271.05 -646.678 1194.99C-720.907 1111.72 -798.388 1016.07 -795.76 904.552C-793.145 793.55 -719.307 693.293 -633.205 623.189C-558.282 562.187 -453.753 573.695 -360.124 549.858Z" fill="#00F0FF"/>
</g>
<g filter="url(#filter4_f_1_709)">
<path fill-rule="evenodd" clip-rule="evenodd" d="M940.765 -35.2818C1041.15 -47.2597 1165.29 -116.67 1236.49 -45.0116C1311.13 30.1159 1213.93 161.786 1238.77 264.655C1260.29 353.791 1369.84 408.241 1368.05 499.912C1366.1 599.876 1317.03 709.594 1229.17 757.587C1142.41 804.977 1030.72 774.335 940.765 733.313C870.551 701.293 856.268 608.367 796.098 560.093C740.965 515.861 656.143 522.427 610.585 468.415C551.96 398.908 494.517 311.25 510.805 221.853C527.423 130.647 612.64 67.5602 692.301 19.9195C766.913 -24.7018 854.404 -24.9773 940.765 -35.2818Z" fill="#00F0FF"/>
</g>
<g filter="url(#filter5_f_1_709)">
<path fill-rule="evenodd" clip-rule="evenodd" d="M240.826 502.641C338.04 518.713 453.041 465.3 527.99 529.097C602.784 592.76 563.255 715.816 598.722 807.277C637.579 907.479 776.915 983.977 744.061 1086.29C711.246 1188.49 558.562 1178.64 463.395 1228.72C386.585 1269.14 326.603 1337.55 240.826 1351.12C145.044 1366.27 32.112 1373.27 -39.727 1308.31C-110.917 1243.93 -103.659 1131.87 -107.518 1036.11C-110.484 962.521 -57.0725 899.655 -59.1646 826.039C-63.1461 685.935 -220.437 524.026 -124.995 421.137C-38.0208 327.377 114.47 481.75 240.826 502.641Z" fill="#0047FF"/>
</g>
<defs>
<filter id="filter0_f_1_709" x="-1250.29" y="-818" width="2099.92" height="1881.18" filterUnits="userSpaceOnUse" color-interpolation-filters="sRGB">
<feFlood flood-opacity="0" result="BackgroundImageFix"/>
<feBlend mode="normal" in="SourceGraphic" in2="BackgroundImageFix" result="shape"/>
<feGaussianBlur stdDeviation="150" result="effect1_foregroundBlur_1_709"/>
</filter>
<filter id="filter1_f_1_709" x="181.187" y="-286.778" width="2140.1" height="1919.87" filterUnits="userSpaceOnUse" color-interpolation-filters="sRGB">
<feFlood flood-opacity="0" result="BackgroundImageFix"/>
<feBlend mode="normal" in="SourceGraphic" in2="BackgroundImageFix" result="shape"/>
<feGaussianBlur stdDeviation="150" result="effect1_foregroundBlur_1_709"/>
</filter>
<filter id="filter2_f_1_709" x="-214" y="-1029" width="1675.84" height="1903.5" filterUnits="userSpaceOnUse" color-interpolation-filters="sRGB">
<feFlood flood-opacity="0" result="BackgroundImageFix"/>
<feBlend mode="normal" in="SourceGraphic" in2="BackgroundImageFix" result="shape"/>
<feGaussianBlur stdDeviation="150" result="effect1_foregroundBlur_1_709"/>
</filter>
<filter id="filter3_f_1_709" x="-1095.83" y="180.947" width="1815.02" height="1474.34" filterUnits="userSpaceOnUse" color-interpolation-filters="sRGB">
<feFlood flood-opacity="0" result="BackgroundImageFix"/>
<feBlend mode="normal" in="SourceGraphic" in2="BackgroundImageFix" result="shape"/>
<feGaussianBlur stdDeviation="150" result="effect1_foregroundBlur_1_709"/>
</filter>
<filter id="filter4_f_1_709" x="208" y="-377" width="1460.07" height="1458.59" filterUnits="userSpaceOnUse" color-interpolation-filters="sRGB">
<feFlood flood-opacity="0" result="BackgroundImageFix"/>
<feBlend mode="normal" in="SourceGraphic" in2="BackgroundImageFix" result="shape"/>
<feGaussianBlur stdDeviation="150" result="effect1_foregroundBlur_1_709"/>
</filter>
<filter id="filter5_f_1_709" x="-455.684" y="91.1777" width="1504.71" height="1570.19" filterUnits="userSpaceOnUse" color-interpolation-filters="sRGB">
<feFlood flood-opacity="0" result="BackgroundImageFix"/>
<feBlend mode="normal" in="SourceGraphic" in2="BackgroundImageFix" result="shape"/>
<feGaussianBlur stdDeviation="150" result="effect1_foregroundBlur_1_709"/>
</filter>
</defs>
</svg>
