<svg width="156" height="30" viewBox="0 0 156 30" fill="none" xmlns="http://www.w3.org/2000/svg">
<path d="M12.9078 6.83364C12.9677 6.85946 13.0336 6.86812 13.0981 6.85865C13.1627 6.84918 13.2233 6.82195 13.2733 6.78001C13.9929 6.21625 14.7163 5.65749 15.4372 5.09623C16.6707 4.13585 17.9005 3.17174 19.1353 2.2151C19.5444 1.8983 19.946 1.88957 20.3651 2.1939C20.8453 2.54437 21.3142 2.90857 21.7832 3.27276C23.289 4.44267 24.7924 5.61467 26.2932 6.78874C26.3388 6.82918 26.3953 6.85525 26.4557 6.86368C26.516 6.87211 26.5775 6.86253 26.6325 6.83613C26.9705 6.71141 27.3172 6.61786 27.6602 6.5131C27.9708 6.41831 28.2838 6.32726 28.6418 6.21999C28.5432 6.13269 28.4896 6.07906 28.431 6.03291C28.1541 5.81589 27.876 5.60136 27.5991 5.38559C25.5786 3.81074 23.5559 2.23755 21.5312 0.666027C21.0096 0.253416 20.3689 0.0198679 19.704 0C19.4658 0 19.2251 0.109757 18.9856 0.173367C18.4169 0.323036 17.9779 0.694714 17.5289 1.04644C15.9856 2.24379 14.4428 3.44322 12.9003 4.64473L10.9047 6.19879C10.9571 6.22723 11.0113 6.25223 11.0669 6.27363C11.683 6.45946 12.2992 6.63657 12.9078 6.83364ZM39.2857 7.07435C39.2558 6.86607 39.2408 6.67524 38.9615 6.65154C38.1295 6.5792 37.3001 6.46071 36.467 6.42454C35.5315 6.38463 34.5961 6.38463 33.6557 6.42454C32.7514 6.45946 31.8472 6.5343 30.9492 6.63907C29.7538 6.78171 28.5729 7.02665 27.4195 7.3712C25.8762 7.80652 24.402 8.45734 23.0404 9.30442C21.8757 10.0271 20.8393 10.9384 19.9734 12.001C19.7951 12.2242 19.7477 12.2155 19.5681 11.9935C18.5808 10.7867 17.3775 9.77413 16.0197 9.00758C14.6443 8.22822 13.173 7.63198 11.6431 7.234C9.97503 6.78532 8.26354 6.51729 6.53815 6.43452C5.27594 6.3734 4.0075 6.39336 2.74404 6.43452C2.00443 6.45822 1.2698 6.59541 0.532683 6.67648C0.499177 6.67646 0.46601 6.68319 0.435162 6.69627C0.404315 6.70935 0.376417 6.72851 0.353136 6.75261C0.329855 6.7767 0.311667 6.80524 0.299657 6.83652C0.287647 6.8678 0.282062 6.90118 0.283234 6.93466C0.195927 8.01353 0.0624726 9.09239 0.0175719 10.1762C-0.0365407 11.6841 0.034379 13.1939 0.229603 14.69C0.563864 17.3691 1.26357 19.9284 2.59936 22.2982C3.14968 23.2883 3.82637 24.2027 4.61241 25.0184C5.74612 26.156 7.06925 27.0874 8.52252 27.7711C9.6799 28.3281 10.8921 28.7633 12.1395 29.0695C13.2432 29.3613 14.3698 29.5578 15.5071 29.6569C16.3477 29.7193 17.1884 29.7929 18.029 29.8315C18.6065 29.859 19.1864 29.8315 19.7652 29.8315V29.7854C20.6557 29.7854 21.5462 29.8016 22.4355 29.7854C23.6084 29.7471 24.7762 29.6145 25.9278 29.3888C27.8323 29.0592 29.6783 28.4524 31.4069 27.5877C32.6017 26.9842 33.7011 26.2079 34.6697 25.2841C36.2786 23.7412 37.3588 21.8629 38.1258 19.7962C39.0762 17.2331 39.4778 14.5665 39.5402 11.8451C39.5914 10.2505 39.5063 8.65444 39.2857 7.07435ZM16.6633 19.3322C16.122 21.8105 16.0396 24.3212 16.107 26.8419C16.107 26.9903 16.1319 27.1375 16.1457 27.2859C16.1644 27.4805 16.0696 27.564 15.8825 27.5416C15.4796 27.4929 15.0755 27.4493 14.6752 27.3882C12.7407 27.0913 10.8698 26.58 9.12244 25.6795C8.04387 25.1374 7.05899 24.4262 6.20514 23.5729C4.93919 22.287 4.06487 20.7553 3.44749 19.0691C2.82167 17.3558 2.44001 15.563 2.31374 13.7434C2.23143 12.5909 2.20898 11.4347 2.18278 10.2785C2.17281 9.81953 2.22145 9.35805 2.2439 8.89782C2.25263 8.72196 2.32871 8.63964 2.51954 8.63091C4.0331 8.53588 5.55152 8.5488 7.06324 8.66958C7.52971 8.71323 7.99493 8.76312 8.4614 8.81426C8.54248 8.83095 8.62245 8.85261 8.70087 8.87911C8.62105 9.00384 8.57615 9.07992 8.52002 9.15475C8.15836 9.661 7.96903 10.2701 7.97997 10.8922C7.97997 14.5208 7.98246 18.149 7.98745 21.7768C7.98745 22.3468 7.98745 22.9181 7.98745 23.4893C7.97867 23.5577 7.99227 23.6271 8.02622 23.6871C8.06017 23.7472 8.11264 23.7946 8.17578 23.8223C8.69838 24.0842 9.21474 24.3561 9.78971 24.653C9.80343 24.4883 9.81965 24.3798 9.81965 24.2701C9.81965 21.29 9.82297 18.3108 9.82963 15.3323C9.82963 13.8556 9.85956 12.3776 9.85457 10.9009C9.84907 10.7045 9.89357 10.5098 9.98388 10.3353C10.0742 10.1608 10.2074 10.0121 10.3709 9.9031C10.5468 9.77837 10.7451 9.66612 10.911 9.52893C10.9917 9.462 11.089 9.418 11.1925 9.40154C11.2961 9.38509 11.4022 9.39677 11.4997 9.43538C13.0463 9.9031 14.5118 10.5305 15.8376 11.4746C16.8104 12.1605 17.6623 13.0035 18.3583 13.9691C18.4118 14.0252 18.4455 14.0972 18.4543 14.1742C18.463 14.2512 18.4464 14.329 18.4069 14.3957C17.575 15.946 17.0399 17.6073 16.6633 19.3322ZM21.2232 27.362C21.2263 27.3991 21.221 27.4364 21.2078 27.4712C21.1947 27.506 21.1738 27.5374 21.1469 27.5631C21.12 27.5888 21.0877 27.6082 21.0523 27.6198C21.017 27.6314 20.9795 27.6349 20.9426 27.6301H18.6015C18.4131 27.6301 18.3209 27.5453 18.3096 27.3458C18.1537 24.4771 18.2884 21.6272 19.0193 18.8309C19.1864 18.1898 19.4209 17.5662 19.628 16.935C19.6639 16.852 19.7056 16.7716 19.7527 16.6943H19.845C20.0059 17.1571 20.183 17.6135 20.3252 18.0813C20.78 19.562 21.065 21.0898 21.1745 22.6349C21.2444 23.6702 21.2843 24.7091 21.2993 25.7468C21.3092 26.2794 21.2469 26.8157 21.2232 27.3558V27.362ZM37.3463 12.0396C37.2552 14.7686 36.8337 17.4339 35.7361 19.9621C34.5171 22.7642 32.5107 24.7794 29.7169 26.0075C28.5867 26.5017 27.4084 26.8779 26.2009 27.13C25.4226 27.2959 24.6306 27.3919 23.8461 27.5179C23.7838 27.5279 23.7214 27.5179 23.6578 27.5266C23.4695 27.5453 23.4083 27.4842 23.4146 27.2772C23.5098 25.6563 23.4873 24.0306 23.3472 22.4129C23.1801 20.6007 22.872 18.8159 22.2833 17.0934C21.984 16.2204 21.5986 15.366 21.2145 14.5204C21.0897 14.2522 21.1059 14.0776 21.2781 13.8494C22.6787 11.9785 24.5209 10.7313 26.6811 9.91682C27.17 9.73223 27.6702 9.57632 28.1716 9.42915C28.297 9.40489 28.427 9.42611 28.5383 9.48901C28.754 9.61758 28.9622 9.75833 29.1619 9.91058C29.3353 10.025 29.4766 10.1816 29.5726 10.3658C29.6687 10.55 29.7162 10.7556 29.7107 10.9633C29.7107 15.381 29.7107 19.7983 29.7107 24.2152V24.5894L29.7855 24.638C30.1393 24.4461 30.5027 24.2725 30.8743 24.1179C31.4356 23.9134 31.5728 23.5542 31.5653 22.9655C31.5316 19.9796 31.5516 16.9924 31.5566 14.0065C31.5566 13.0212 31.5778 12.0371 31.5865 11.0518C31.5865 10.3297 31.4306 9.65615 30.9766 9.07493C30.8444 8.90531 30.9167 8.8392 31.0926 8.82548C31.6589 8.76437 32.2239 8.67082 32.7926 8.65461C34.0573 8.61594 35.3245 8.57853 36.5892 8.6147C37.4224 8.63964 37.2927 8.54859 37.3101 9.30941C37.3288 10.2112 37.3762 11.1266 37.3463 12.0396Z" fill="url(#paint0_linear_476_9347)"/>
<path d="M67.7054 7.03449C66.4506 7.05445 65.1947 7.05819 63.9399 7.03449C63.5047 7.02576 63.2789 7.19913 63.0818 7.56831C61.6812 10.2087 60.2618 12.8404 58.8412 15.4721C58.6092 15.9036 58.3635 16.3264 58.0629 16.8603C57.8808 16.5721 57.7561 16.3988 57.6563 16.2142C56.0965 13.3231 54.5412 10.4299 52.9904 7.53464C52.8008 7.18042 52.5801 7.02826 52.1722 7.03574C50.8984 7.05819 49.625 7.05819 48.3519 7.03574C47.9142 7.03574 47.772 7.20162 47.772 7.62319C47.7795 13.3455 47.7795 19.0679 47.772 24.7902C47.772 25.2579 47.9553 25.3964 48.3956 25.3876C49.4844 25.3664 50.5745 25.3877 51.6634 25.3802C52.4254 25.3802 52.4317 25.3802 52.4329 24.6056C52.4329 21.7785 52.4329 18.9544 52.4329 16.1331C52.4456 15.9166 52.4702 15.7009 52.5065 15.487C52.7005 15.6028 52.8578 15.771 52.9605 15.9722C53.9471 17.7034 54.9424 19.4308 55.9115 21.172C56.1247 21.5561 56.3692 21.737 56.8232 21.7183C57.6339 21.6846 58.4446 21.6846 59.2591 21.7183C59.7168 21.737 59.9538 21.5474 60.167 21.1645C61.1162 19.4545 62.0903 17.7583 63.0619 16.0608C63.1804 15.8525 63.33 15.6629 63.4647 15.4658L63.6044 15.5157C63.6157 15.7278 63.6369 15.9398 63.6369 16.1518C63.6369 18.9955 63.6468 21.838 63.6306 24.6805C63.6306 25.1906 63.7628 25.4101 64.3179 25.3914C65.4404 25.354 66.5691 25.3664 67.6954 25.3914C68.1332 25.3989 68.319 25.2729 68.319 24.8002C68.3065 19.0779 68.3065 13.3551 68.319 7.63192C68.329 7.15548 68.1456 7.02701 67.7054 7.03449Z" fill="white"/>
<path d="M155.964 14.917C155.921 12.8055 154.459 11.3138 152.355 11.2614C149.976 11.2028 147.595 11.209 145.217 11.2614C143.178 11.3013 141.736 12.6421 141.64 14.6851C141.53 17.0236 141.484 19.3747 141.591 21.712C141.716 24.3699 143.155 25.6034 145.832 25.6047H148.768C149.913 25.6047 151.058 25.6221 152.201 25.6047C154.343 25.5635 155.928 24.0356 155.967 21.9028C156.007 19.5722 156.007 17.2436 155.964 14.917ZM151.49 21.0061C151.482 21.8093 151.083 22.1984 150.291 22.1897C149.259 22.1785 148.228 22.166 147.196 22.1461C146.413 22.1311 146.057 21.7719 146.059 20.9824C146.059 19.2874 146.059 17.5911 146.079 15.8961C146.079 14.9782 146.427 14.6402 147.357 14.6302C148.317 14.6185 149.275 14.6185 150.233 14.6302C151.152 14.6402 151.48 14.9869 151.492 15.9198C151.492 16.7492 151.492 17.5787 151.492 18.4143C151.493 19.2737 151.499 20.1405 151.49 21.0061Z" fill="white"/>
<path d="M100.544 14.9857C100.441 12.687 98.8853 11.2627 96.5766 11.2527C94.6571 11.2452 92.7376 11.2402 90.818 11.2527C88.6304 11.2689 87.1137 12.576 87.0052 14.745C86.8805 17.1384 86.8655 19.5431 86.9578 21.9366C87.0451 24.1816 88.3984 25.581 90.4189 25.576C93.1267 25.5686 95.8345 25.4214 98.5423 25.3266C98.8927 25.3237 99.2422 25.2887 99.5862 25.2218C99.7459 25.1869 99.9891 25.0085 99.9941 24.8876C100.028 23.9721 100.013 23.0541 100.013 22.0987C99.7534 22.0987 99.6062 22.0987 99.4603 22.0987C97.2501 22.1744 95.0404 22.2505 92.8311 22.327C92.6835 22.3345 92.5356 22.332 92.3883 22.3195C91.6924 22.2459 91.408 21.7483 91.4417 20.7829C91.4666 20.0433 92.0092 20.2902 92.3721 20.284C94.9003 20.2665 97.4297 20.2728 99.9579 20.2765C100.301 20.2765 100.582 20.2603 100.572 19.7938C100.555 18.1961 100.616 16.5884 100.544 14.9857ZM94.5897 17.1297C94.2941 17.1372 93.9985 17.1297 93.7042 17.1297C93.0955 17.1297 92.4869 17.1222 91.8782 17.1297C91.524 17.136 91.3793 16.9763 91.3868 16.6308C91.403 16.2255 91.3718 15.8164 91.4205 15.416C91.4966 14.7924 91.8558 14.4444 92.4819 14.4182C93.3288 14.3883 94.1781 14.3883 95.025 14.4182C95.6749 14.4419 96.0665 14.8236 96.0727 15.4734C96.0927 17.4877 96.3097 17.0873 94.5897 17.1297Z" fill="white"/>
<path d="M84.7065 19.8985C84.7065 18.2921 84.7227 16.6856 84.7065 15.0804C84.6729 12.7219 83.1799 11.2576 80.8189 11.2526C79.6377 11.2526 78.4491 11.2077 77.2742 11.2626C75.7463 11.3337 74.2222 11.4809 72.6981 11.6069C72.4224 11.6293 72.1318 11.6742 72.1356 12.0708C72.1418 12.8641 72.1206 13.6586 72.1543 14.4518C72.1605 14.5766 72.3688 14.7624 72.5185 14.8123C72.6993 14.8734 72.9188 14.8248 73.1221 14.8123C74.993 14.7162 76.8763 14.5965 78.7559 14.5267C79.8597 14.4867 80.2239 14.8821 80.2214 15.971C80.2214 16.6644 80.2102 16.6769 79.4993 16.6782C77.818 16.6782 76.1317 16.6657 74.4579 16.6782C72.5384 16.6994 71.1178 17.8842 70.8659 19.7751C70.7524 20.6732 70.7524 21.5821 70.8659 22.4803C71.0717 24.1616 72.1219 25.2243 73.7907 25.5061C75.911 25.8591 77.8966 25.4188 79.7774 24.4036C80.431 24.0494 80.4684 24.0543 80.5881 24.7565C80.6705 25.2455 80.9112 25.3802 81.3764 25.3664C82.2619 25.3365 83.15 25.3303 84.0355 25.3664C84.5831 25.3889 84.729 25.1706 84.7203 24.6555C84.6916 23.074 84.7078 21.4863 84.7065 19.8985ZM79.054 21.8367C78.1833 21.9806 77.3043 22.0685 76.4223 22.0999C75.674 22.1286 75.2998 21.702 75.2998 20.9774C75.2998 20.2528 75.674 19.8736 76.4223 19.8412H78.025C78.5788 19.8412 79.1314 19.8511 79.6839 19.8412C80.0456 19.8337 80.2127 19.9572 80.2289 20.3488C80.2801 21.591 80.2988 21.6247 79.054 21.8367Z" fill="white"/>
<path d="M113.595 16.9626C113.049 16.8735 112.496 16.8318 111.943 16.8379C110.577 16.8204 109.211 16.8379 107.845 16.8241C107.248 16.8154 106.892 16.45 106.877 15.9074C106.868 15.656 106.953 15.4101 107.117 15.2191C107.281 15.0281 107.511 14.9059 107.761 14.8772C107.962 14.8566 108.165 14.8503 108.368 14.8585C110.435 14.8585 112.503 14.8448 114.569 14.866C115.056 14.866 115.227 14.7088 115.204 14.2261C115.173 13.5451 115.175 12.8542 115.204 12.1794C115.224 11.7105 115.029 11.5758 114.58 11.582C113.141 11.6007 111.702 11.5895 110.262 11.5895C108.823 11.5895 107.383 11.5733 105.943 11.5895C104.151 11.6157 102.749 12.7831 102.451 14.5429C102.346 15.1541 102.39 15.7902 102.39 16.42C102.39 18.826 103.848 20.2778 106.256 20.2865C107.973 20.2865 109.689 20.279 111.405 20.299C111.608 20.299 111.96 20.4174 111.989 20.5409C112.172 21.3329 111.935 22.1823 110.904 22.1524C108.306 22.0763 105.706 22.0164 103.108 21.9291C102.734 21.9166 102.609 22.0426 102.617 22.3931C102.627 23.094 102.653 23.7975 102.608 24.4959C102.572 25.0597 102.81 25.2542 103.333 25.2705C104.236 25.2979 105.138 25.3665 106.041 25.3952C108.38 25.47 110.72 25.5885 113.06 25.5823C114.817 25.5823 116.141 24.4198 116.403 22.6912C116.537 21.7623 116.544 20.8192 116.421 19.8886C116.217 18.2872 115.172 17.2569 113.595 16.9626Z" fill="white"/>
<path d="M127.677 22.1049C126.791 22.1249 125.904 22.1186 125.019 22.1049C124.252 22.0949 123.849 21.702 123.845 20.9437C123.834 19.1352 123.853 17.3267 123.833 15.517C123.833 15.0405 124.025 14.9096 124.456 14.922C125.175 14.942 125.896 14.922 126.615 14.922C127.016 14.9295 127.175 14.7686 127.165 14.3608C127.144 13.5675 127.147 12.773 127.165 11.9798C127.173 11.5956 127.017 11.4547 126.64 11.4622C125.921 11.4784 125.2 11.4447 124.481 11.4722C124.009 11.4909 123.809 11.335 123.83 10.8411C123.86 10.1601 123.83 9.46909 123.84 8.79309C123.848 8.43638 123.698 8.29419 123.35 8.29419C122.352 8.29419 121.355 8.29419 120.357 8.29419C120.001 8.29419 119.825 8.43388 119.779 8.80556C119.691 9.49902 119.549 10.1863 119.449 10.8797C119.389 11.2938 119.206 11.5245 118.758 11.4722C118.667 11.4609 118.572 11.4809 118.482 11.4722C117.965 11.4048 117.74 11.5969 117.777 12.1469C117.817 12.7344 117.777 13.3268 117.787 13.918C117.801 14.8634 117.6 14.9557 118.762 14.9158C119.237 14.9021 119.361 15.1104 119.353 15.5481C119.331 16.6183 119.345 17.6897 119.353 18.7598C119.36 19.8299 119.336 20.8651 119.353 21.9166C119.393 23.9408 120.738 25.4787 122.713 25.5623C124.367 25.6321 126.029 25.5011 127.688 25.4575C128.075 25.4475 128.243 25.2542 128.236 24.8613C128.221 24.1229 128.222 23.3846 128.236 22.6462C128.245 22.2521 128.09 22.0949 127.677 22.1049Z" fill="white"/>
<path d="M140.358 11.6892C140.358 11.3886 140.234 11.2652 139.928 11.2514C138.903 11.204 137.888 11.2589 136.953 11.7192C136.133 12.1245 135.343 12.5922 134.439 13.0911C134.375 12.7319 134.291 12.3977 134.262 12.0584C134.228 11.658 134.077 11.4635 133.638 11.4722C132.679 11.493 131.719 11.493 130.76 11.4722C130.316 11.4622 130.192 11.6443 130.193 12.0634C130.203 16.304 130.203 20.5488 130.193 24.7977C130.193 25.2692 130.375 25.3989 130.817 25.3902C131.887 25.3702 132.958 25.359 134.027 25.3902C134.576 25.4089 134.712 25.1981 134.708 24.683C134.687 22.2097 134.698 19.7377 134.698 17.2644C134.698 15.8725 134.698 15.8725 136.042 15.5245C136.06 15.519 136.078 15.5152 136.097 15.5133C137.323 15.4035 138.547 15.2863 139.773 15.189C140.086 15.164 140.366 15.1765 140.36 14.735C140.348 13.7197 140.353 12.7045 140.358 11.6892Z" fill="white"/>
<defs>
<linearGradient id="paint0_linear_476_9347" x1="19.7227" y1="29.0782" x2="19.7951" y2="0.41159" gradientUnits="userSpaceOnUse">
<stop stop-color="#35A2E9"/>
<stop offset="0.05" stop-color="#4392E9"/>
<stop offset="0.14" stop-color="#547FE9"/>
<stop offset="0.22" stop-color="#5E74E9"/>
<stop offset="0.31" stop-color="#6170E9"/>
<stop offset="0.47" stop-color="#7559E9"/>
<stop offset="0.72" stop-color="#9039E8"/>
<stop offset="1" stop-color="#AA1BE7"/>
</linearGradient>
</defs>
</svg>
