<svg width="208" height="40" viewBox="0 0 208 40" fill="none" xmlns="http://www.w3.org/2000/svg">
<g clip-path="url(#clip0_107_1205)">
<path d="M17.2104 9.11152C17.2903 9.14595 17.3781 9.15749 17.4641 9.14487C17.5503 9.13224 17.6311 9.09593 17.6977 9.04001C18.6572 8.28833 19.6217 7.54332 20.5829 6.79497C22.2276 5.51447 23.8673 4.22899 25.5137 2.95347C26.0592 2.53107 26.5947 2.51943 27.1535 2.9252C27.7937 3.39249 28.4189 3.87809 29.0443 4.36368C31.052 5.92356 33.0565 7.48623 35.0576 9.05165C35.1184 9.10557 35.1937 9.14033 35.2743 9.15157C35.3547 9.16281 35.4367 9.15004 35.51 9.11484C35.9607 8.94855 36.4229 8.82381 36.8803 8.68413C37.2944 8.55775 37.7117 8.43635 38.1891 8.29332C38.0576 8.17692 37.9861 8.10541 37.908 8.04388C37.5388 7.75452 37.168 7.46848 36.7988 7.18079C34.1048 5.08099 31.4079 2.9834 28.7083 0.888036C28.0128 0.337888 27.1585 0.0264905 26.272 0C25.9544 0 25.6335 0.146343 25.3141 0.231156C24.5559 0.430715 23.9705 0.926285 23.3719 1.39525C21.3141 2.99172 19.2571 4.59096 17.2004 6.19297L14.5396 8.26505C14.6095 8.30297 14.6817 8.33631 14.7559 8.36484C15.5773 8.61261 16.3989 8.84876 17.2104 9.11152ZM52.3809 9.43247C52.3411 9.15476 52.3211 8.90032 51.9487 8.86872C50.8393 8.77227 49.7335 8.61428 48.6227 8.56605C47.3753 8.51284 46.1281 8.51284 44.8743 8.56605C43.6685 8.61261 42.4629 8.7124 41.2656 8.85209C39.6717 9.04228 38.0972 9.36887 36.5593 9.82827C34.5016 10.4087 32.536 11.2765 30.7205 12.4059C29.1676 13.3695 27.7857 14.5845 26.6312 16.0013C26.3935 16.2989 26.3303 16.2873 26.0908 15.9913C24.7744 14.3823 23.17 13.0322 21.3596 12.0101C19.5257 10.971 17.564 10.176 15.5241 9.64533C13.3 9.04709 11.0181 8.68972 8.71753 8.57936C7.03459 8.49787 5.34333 8.52448 3.65872 8.57936C2.67257 8.61096 1.69307 8.79388 0.710244 8.90197C0.665569 8.90195 0.621347 8.91092 0.580216 8.92836C0.539087 8.9458 0.501889 8.97135 0.470848 9.00348C0.439807 9.0356 0.415556 9.07365 0.399543 9.11536C0.383529 9.15707 0.376083 9.20157 0.377645 9.24621C0.261236 10.6847 0.0832968 12.1232 0.0234292 13.5683C-0.0487209 15.5788 0.0458387 17.5919 0.306137 19.5867C0.751819 23.1588 1.68476 26.5712 3.46581 29.7309C4.19957 31.0511 5.10183 32.2703 6.14988 33.3579C7.66149 34.8747 9.42567 36.1165 11.3634 37.0281C12.9065 37.7708 14.5228 38.3511 16.186 38.7593C17.6576 39.1484 19.1597 39.4104 20.6761 39.5425C21.7969 39.6257 22.9179 39.7239 24.0387 39.7753C24.8087 39.812 25.5819 39.7753 26.3536 39.7753V39.7139C27.5409 39.7139 28.7283 39.7355 29.914 39.7139C31.4779 39.6628 33.0349 39.486 34.5704 39.1851C37.1097 38.7456 39.5711 37.9365 41.8759 36.7836C43.4689 35.9789 44.9348 34.9439 46.2263 33.7121C48.3715 31.6549 49.8117 29.1505 50.8344 26.3949C52.1016 22.9775 52.6371 19.422 52.7203 15.7935C52.7885 13.6673 52.6751 11.5393 52.3809 9.43247ZM22.2177 25.7763C21.496 29.0807 21.3861 32.4283 21.476 35.7892C21.476 35.9871 21.5092 36.1833 21.5276 36.3812C21.5525 36.6407 21.4261 36.752 21.1767 36.7221C20.6395 36.6572 20.1007 36.5991 19.5669 36.5176C16.9876 36.1217 14.4931 35.44 12.1633 34.2393C10.7252 33.5165 9.41199 32.5683 8.27352 31.4305C6.58559 29.716 5.41983 27.6737 4.59665 25.4255C3.76223 23.1411 3.25335 20.7507 3.08499 18.3245C2.97524 16.7879 2.94531 15.2463 2.91037 13.7047C2.89708 13.0927 2.96193 12.4774 2.99187 11.8638C3.00351 11.6293 3.10495 11.5195 3.35939 11.5079C5.37747 11.3812 7.40203 11.3984 9.41765 11.5594C10.0396 11.6176 10.6599 11.6842 11.2819 11.7523C11.39 11.7746 11.4966 11.8035 11.6012 11.8388C11.4947 12.0051 11.4349 12.1066 11.36 12.2063C10.8778 12.8813 10.6254 13.6935 10.64 14.5229C10.64 19.3611 10.6433 24.1987 10.6499 29.0357C10.6499 29.7957 10.6499 30.5575 10.6499 31.3191C10.6382 31.4103 10.6564 31.5028 10.7016 31.5828C10.7469 31.6629 10.8169 31.7261 10.901 31.7631C11.5978 32.1123 12.2863 32.4748 13.0529 32.8707C13.0712 32.6511 13.0929 32.5064 13.0929 32.3601C13.0929 28.3867 13.0973 24.4144 13.1062 20.4431C13.1062 18.4741 13.1461 16.5035 13.1394 14.5345C13.1321 14.2727 13.1914 14.0131 13.3118 13.7804C13.4323 13.5477 13.6099 13.3495 13.8279 13.2041C14.0624 13.0378 14.3268 12.8882 14.548 12.7052C14.6556 12.616 14.7853 12.5573 14.9233 12.5354C15.0615 12.5135 15.2029 12.529 15.3329 12.5805C17.3951 13.2041 19.3491 14.0407 21.1168 15.2995C22.4139 16.214 23.5497 17.338 24.4777 18.6255C24.5491 18.7003 24.594 18.7963 24.6057 18.8989C24.6173 19.0016 24.5952 19.1053 24.5425 19.1943C23.4333 21.2613 22.7199 23.4764 22.2177 25.7763ZM28.2976 36.4827C28.3017 36.5321 28.2947 36.5819 28.2771 36.6283C28.2596 36.6747 28.2317 36.7165 28.1959 36.7508C28.16 36.7851 28.1169 36.8109 28.0697 36.8264C28.0227 36.8419 27.9727 36.8465 27.9235 36.8401H24.802C24.5508 36.8401 24.4279 36.7271 24.4128 36.4611C24.2049 32.6361 24.3845 28.8363 25.3591 25.1079C25.5819 24.2531 25.8945 23.4216 26.1707 22.58C26.2185 22.4693 26.2741 22.3621 26.3369 22.2591H26.46C26.6745 22.8761 26.9107 23.4847 27.1003 24.1084C27.7067 26.0827 28.0867 28.1197 28.2327 30.1799C28.3259 31.5603 28.3791 32.9455 28.3991 34.3291C28.4123 35.0392 28.3292 35.7543 28.2976 36.4744V36.4827ZM49.7951 16.0528C49.6736 19.6915 49.1116 23.2452 47.6481 26.6161C46.0228 30.3523 43.3476 33.0392 39.6225 34.6767C38.1156 35.3356 36.5445 35.8372 34.9345 36.1733C33.8968 36.3945 32.8408 36.5225 31.7948 36.6905C31.7117 36.7039 31.6285 36.6905 31.5437 36.7021C31.2927 36.7271 31.2111 36.6456 31.2195 36.3696C31.3464 34.2084 31.3164 32.0408 31.1296 29.8839C30.9068 27.4676 30.496 25.0879 29.7111 22.7912C29.312 21.6272 28.7981 20.488 28.286 19.3605C28.1196 19.0029 28.1412 18.7701 28.3708 18.4659C30.2383 15.9713 32.6945 14.3084 35.5748 13.2224C36.2267 12.9763 36.8936 12.7684 37.5621 12.5722C37.7293 12.5399 37.9027 12.5681 38.0511 12.652C38.3387 12.8234 38.6163 13.0111 38.8825 13.2141C39.1137 13.3667 39.3021 13.5755 39.4301 13.8211C39.5583 14.0667 39.6216 14.3408 39.6143 14.6177C39.6143 20.508 39.6143 26.3977 39.6143 32.2869V32.7859L39.714 32.8507C40.1857 32.5948 40.6703 32.3633 41.1657 32.1572C41.9141 31.8845 42.0971 31.4056 42.0871 30.6207C42.0421 26.6395 42.0688 22.6565 42.0755 18.6753C42.0755 17.3616 42.1037 16.0495 42.1153 14.7357C42.1153 13.7729 41.9075 12.8749 41.3021 12.0999C41.1259 11.8737 41.2223 11.7856 41.4568 11.7673C42.2119 11.6858 42.9652 11.5611 43.7235 11.5395C45.4097 11.4879 47.0993 11.438 48.7856 11.4863C49.8965 11.5195 49.7236 11.3981 49.7468 12.4125C49.7717 13.6149 49.8349 14.8355 49.7951 16.0528Z" fill="white"/>
<path d="M90.274 9.37932C88.6011 9.40594 86.9266 9.41092 85.2535 9.37932C84.6731 9.36768 84.3722 9.59884 84.1094 10.0911C82.2419 13.6116 80.3494 17.1205 78.4552 20.6295C78.1459 21.2048 77.8183 21.7685 77.4175 22.4804C77.1747 22.0961 77.0084 21.8651 76.8754 21.6189C74.7956 17.7641 72.7218 13.9065 70.6542 10.0462C70.4014 9.5739 70.1071 9.37102 69.5632 9.38099C67.8648 9.41092 66.1668 9.41092 64.4695 9.38099C63.8858 9.38099 63.6963 9.60216 63.6963 10.1643C63.7062 17.794 63.7062 25.4239 63.6963 33.0536C63.6963 33.6772 63.9407 33.8619 64.5278 33.8501C65.9795 33.8219 67.433 33.8503 68.8847 33.8403C69.9008 33.8403 69.9092 33.8403 69.9108 32.8075C69.9108 29.038 69.9108 25.2725 69.9108 21.5108C69.9278 21.2221 69.9606 20.9345 70.009 20.6493C70.2676 20.8037 70.4774 21.028 70.6143 21.2963C71.9296 23.6045 73.2567 25.9077 74.5488 28.2293C74.8332 28.7415 75.1592 28.9827 75.7646 28.9577C76.8455 28.9128 77.9264 28.9128 79.0123 28.9577C79.6227 28.9827 79.9387 28.7299 80.223 28.2193C81.4886 25.9393 82.7874 23.6777 84.0828 21.4144C84.2408 21.1367 84.4403 20.8839 84.6199 20.6211L84.8062 20.6876C84.8211 20.9704 84.8495 21.2531 84.8495 21.5357C84.8495 25.3273 84.8627 29.1173 84.8411 32.9073C84.8411 33.5875 85.0174 33.8801 85.7574 33.8552C87.2542 33.8053 88.7591 33.8219 90.2608 33.8552C90.8446 33.8652 91.0923 33.6972 91.0923 33.0669C91.0756 25.4372 91.0756 17.8068 91.0923 10.1759C91.1056 9.54064 90.8611 9.36935 90.274 9.37932Z" fill="white"/>
<path d="M207.952 19.8894C207.893 17.0741 205.945 15.0851 203.14 15.0153C199.968 14.9371 196.793 14.9454 193.623 15.0153C190.903 15.0685 188.981 16.8562 188.853 19.5802C188.707 22.6982 188.645 25.833 188.788 28.9494C188.955 32.4933 190.873 34.1379 194.441 34.1397H198.356C199.883 34.1397 201.409 34.1629 202.935 34.1397C205.791 34.0847 207.904 32.0475 207.956 29.2038C208.009 26.0963 208.008 22.9915 207.952 19.8894ZM201.987 28.0082C201.975 29.0791 201.443 29.5979 200.387 29.5863C199.012 29.5714 197.636 29.5547 196.261 29.5282C195.217 29.5082 194.743 29.0293 194.744 27.9766C194.744 25.7166 194.744 23.4549 194.771 21.1949C194.771 19.971 195.235 19.5203 196.476 19.507C197.755 19.4914 199.033 19.4914 200.311 19.507C201.536 19.5203 201.973 19.9826 201.988 21.2265C201.988 22.3323 201.988 23.4383 201.988 24.5525C201.991 25.6983 201.999 26.8541 201.987 28.0082Z" fill="white"/>
<path d="M134.059 19.9809C133.921 16.916 131.847 15.0169 128.769 15.0036C126.21 14.9936 123.65 14.9869 121.091 15.0036C118.174 15.0252 116.152 16.768 116.007 19.66C115.841 22.8512 115.821 26.0574 115.944 29.2488C116.06 32.2421 117.865 34.108 120.559 34.1013C124.169 34.0914 127.779 33.8952 131.39 33.7688C131.857 33.7649 132.323 33.7182 132.782 33.629C132.995 33.5825 133.319 33.3446 133.326 33.1834C133.371 31.9628 133.351 30.7388 133.351 29.4649C133.005 29.4649 132.808 29.4649 132.614 29.4649C129.667 29.5658 126.721 29.6673 123.775 29.7693C123.578 29.7793 123.381 29.776 123.185 29.7593C122.257 29.6612 121.877 28.9977 121.922 27.7105C121.956 26.7244 122.679 27.0536 123.163 27.0453C126.534 27.022 129.907 27.0304 133.277 27.0353C133.735 27.0353 134.109 27.0137 134.096 26.3917C134.073 24.2614 134.155 22.1178 134.059 19.9809ZM126.12 22.8396C125.726 22.8496 125.332 22.8396 124.939 22.8396C124.128 22.8396 123.316 22.8296 122.504 22.8396C122.032 22.848 121.839 22.635 121.849 22.1744C121.871 21.634 121.829 21.0885 121.894 20.5546C121.996 19.7232 122.475 19.2592 123.309 19.2242C124.439 19.1844 125.571 19.1844 126.7 19.2242C127.567 19.2558 128.089 19.7648 128.097 20.6312C128.124 23.3169 128.413 22.783 126.12 22.8396Z" fill="white"/>
<path d="M112.942 26.5314C112.942 24.3895 112.964 22.2475 112.942 20.1073C112.897 16.9626 110.907 15.0102 107.759 15.0035C106.184 15.0035 104.599 14.9437 103.032 15.0169C100.995 15.1117 98.9631 15.3079 96.9309 15.4759C96.5635 15.5058 96.176 15.5657 96.1809 16.0945C96.1892 17.1522 96.161 18.2115 96.2059 19.2691C96.2142 19.4355 96.4919 19.6833 96.6915 19.7498C96.9327 19.8313 97.2253 19.7665 97.4964 19.7498C99.9908 19.6217 102.502 19.4621 105.008 19.369C106.48 19.3157 106.965 19.8429 106.962 21.2947C106.962 22.2193 106.947 22.2359 105.999 22.2377C103.757 22.2377 101.509 22.221 99.2775 22.2377C96.7181 22.2659 94.8239 23.8457 94.488 26.3669C94.3367 27.5643 94.3367 28.7762 94.488 29.9738C94.7624 32.2155 96.1627 33.6325 98.3878 34.0082C101.215 34.4789 103.862 33.8918 106.37 32.5382C107.241 32.0659 107.291 32.0725 107.451 33.0087C107.561 33.6607 107.882 33.8403 108.502 33.8219C109.683 33.7821 110.867 33.7738 112.047 33.8219C112.778 33.8519 112.972 33.5609 112.961 32.8741C112.922 30.7654 112.944 28.6485 112.942 26.5314ZM105.405 29.1157C104.245 29.3075 103.073 29.4247 101.897 29.4666C100.899 29.5049 100.4 28.9361 100.4 27.9699C100.4 27.0038 100.899 26.4982 101.897 26.455H104.034C104.772 26.455 105.509 26.4682 106.245 26.455C106.728 26.445 106.95 26.6097 106.972 27.1318C107.04 28.7881 107.065 28.833 105.405 29.1157Z" fill="white"/>
<path d="M151.46 22.6168C150.732 22.498 149.995 22.4424 149.257 22.4505C147.436 22.4272 145.615 22.4505 143.793 22.4321C142.997 22.4205 142.524 21.9333 142.504 21.2099C142.491 20.8747 142.604 20.5468 142.823 20.2921C143.041 20.0375 143.348 19.8745 143.681 19.8363C143.949 19.8088 144.22 19.8004 144.491 19.8113C147.247 19.8113 150.004 19.7931 152.759 19.8213C153.408 19.8213 153.636 19.6117 153.605 18.9681C153.564 18.0601 153.568 17.1389 153.605 16.2392C153.632 15.614 153.373 15.4344 152.775 15.4427C150.855 15.4676 148.936 15.4527 147.017 15.4527C145.097 15.4527 143.177 15.4311 141.257 15.4527C138.868 15.4876 136.999 17.0441 136.601 19.3905C136.461 20.2055 136.52 21.0536 136.52 21.8933C136.52 25.1013 138.464 27.0371 141.675 27.0487C143.964 27.0487 146.252 27.0387 148.54 27.0653C148.811 27.0653 149.28 27.2232 149.319 27.3879C149.563 28.4439 149.247 29.5764 147.872 29.5365C144.408 29.4351 140.941 29.3552 137.477 29.2388C136.979 29.2221 136.813 29.3901 136.823 29.8575C136.836 30.792 136.871 31.73 136.811 32.6612C136.763 33.4129 137.08 33.6723 137.777 33.694C138.981 33.7305 140.184 33.822 141.388 33.8603C144.508 33.96 147.627 34.118 150.747 34.1097C153.091 34.1097 154.855 32.5597 155.204 30.2549C155.384 29.0164 155.392 27.7589 155.229 26.5181C154.956 24.3829 153.563 23.0092 151.46 22.6168Z" fill="white"/>
<path d="M170.236 29.4731C169.055 29.4998 167.872 29.4914 166.692 29.4731C165.669 29.4598 165.132 28.9359 165.127 27.9249C165.112 25.5135 165.137 23.1022 165.111 20.6893C165.111 20.0539 165.367 19.8794 165.941 19.8959C166.9 19.9226 167.861 19.8959 168.82 19.8959C169.355 19.9059 169.567 19.6914 169.553 19.1477C169.525 18.0899 169.528 17.0306 169.553 15.973C169.564 15.4607 169.356 15.2729 168.853 15.2829C167.893 15.3045 166.933 15.2595 165.975 15.2962C165.344 15.3211 165.079 15.1133 165.107 14.4547C165.147 13.5467 165.107 12.6254 165.12 11.724C165.131 11.2484 164.931 11.0588 164.467 11.0588C163.136 11.0588 161.805 11.0588 160.476 11.0588C160.001 11.0588 159.767 11.2451 159.705 11.7407C159.588 12.6653 159.397 13.5817 159.265 14.5062C159.185 15.0583 158.94 15.3659 158.344 15.2962C158.223 15.2811 158.096 15.3078 157.976 15.2962C157.285 15.2063 156.987 15.4625 157.036 16.1958C157.089 16.9791 157.036 17.769 157.049 18.5573C157.068 19.8178 156.8 19.9409 158.348 19.8877C158.983 19.8694 159.148 20.1471 159.137 20.7307C159.108 22.1577 159.127 23.5862 159.137 25.013C159.147 26.4398 159.115 27.8201 159.137 29.222C159.189 31.921 160.984 33.9715 163.617 34.083C165.821 34.1761 168.039 34.0014 170.251 33.9433C170.765 33.9299 170.991 33.6722 170.98 33.1483C170.96 32.1638 170.963 31.1794 170.98 30.1949C170.993 29.6694 170.785 29.4598 170.236 29.4731Z" fill="white"/>
<path d="M187.145 15.5856C187.145 15.1848 186.978 15.0203 186.57 15.0019C185.204 14.9387 183.85 15.0119 182.605 15.6256C181.51 16.166 180.457 16.7896 179.252 17.4548C179.168 16.9759 179.054 16.5303 179.016 16.0779C178.97 15.544 178.769 15.2847 178.184 15.2963C176.905 15.324 175.625 15.324 174.346 15.2963C173.754 15.283 173.589 15.5258 173.592 16.0846C173.605 21.7387 173.605 27.3984 173.592 33.0637C173.592 33.6923 173.834 33.8652 174.422 33.8536C175.849 33.827 177.278 33.812 178.704 33.8536C179.434 33.8786 179.616 33.5975 179.612 32.9107C179.582 29.613 179.599 26.317 179.599 23.0192C179.599 21.1634 179.599 21.1634 181.389 20.6994C181.413 20.692 181.437 20.687 181.462 20.6844C183.097 20.538 184.73 20.3818 186.365 20.252C186.782 20.2187 187.154 20.2354 187.146 19.6467C187.132 18.293 187.138 16.9394 187.145 15.5856Z" fill="white"/>
</g>
<defs>
<clipPath id="clip0_107_1205">
<rect width="208" height="40" fill="white"/>
</clipPath>
</defs>
</svg>
